<?xml version="1.0" encoding="utf-8"?>
<!-- Generator: Adobe Illustrator 26.0.3, SVG Export Plug-In . SVG Version: 6.00 Build 0)  -->
<svg version="1.1" id="레이어_1" xmlns="http://www.w3.org/2000/svg" xmlns:xlink="http://www.w3.org/1999/xlink" x="0px"
	 y="0px" viewBox="0 0 21 30" style="enable-background:new 0 0 21 30;" xml:space="preserve">
<style type="text/css">
	.st0{fill:#2F4780;}
	.st1{fill:#FFFFFF;}
</style>
<g>
	<g id="XMLID_00000174573941420077605800000013561726847769329071_">
		<g>
			<path class="fill-blue" d="M10.9,29.7c-0.2,0.3-0.6,0.3-0.8,0L1.6,16.1c-2.6-4.2-2-9.5,1.5-13C5.1,1.1,7.8,0,10.5,0s5.4,1,7.4,3.1
				c2,2,3.1,4.7,3.1,7.4c0,1.9-0.5,3.8-1.6,5.6L10.9,29.7z M17.7,10.8c0-4-3.2-7.2-7.2-7.2s-7.2,3.2-7.2,7.2S6.6,18,10.5,18
				S17.7,14.8,17.7,10.8z"/>
			<path class="fill-white" d="M11.2,9.3c0.1,0.6,0.1,1.2-0.1,1.8c-0.1,0.5-0.3,1-0.6,1.5c0,0,0,0.1-0.1,0.1c-0.1-0.2-0.2-0.3-0.2-0.4
				c-0.3-0.7-0.5-1.5-0.5-2.3c0-0.4,0-0.8,0.2-1.2c0.1-0.1,0.1-0.2,0.2-0.3c0.2-0.2,0.4-0.2,0.6,0C11,8.8,11.1,9.1,11.2,9.3z"/>
			<path class="fill-blue" d="M11.1,11.2c0.1-0.6,0.2-1.2,0.1-1.8c-0.1-0.3-0.2-0.5-0.4-0.7c-0.2-0.2-0.4-0.2-0.6,0
				C10.1,8.7,10,8.8,10,8.9c-0.2,0.4-0.2,0.8-0.2,1.2c0,0.8,0.2,1.5,0.5,2.3c0.1,0.1,0.1,0.3,0.2,0.4c0-0.1,0.1-0.1,0.1-0.1
				C10.8,12.2,11,11.7,11.1,11.2z M9.3,15.2c-0.1,0-0.2,0-0.4,0.1c-0.1,0-0.1,0-0.2,0c-0.1,0-0.2,0-0.4-0.1
				c-0.7-0.1-1.3-0.6-1.8-1.2c-0.4-0.6-0.7-1.2-0.8-2c-0.2-1-0.2-2-0.2-2.9c0-0.6,0.1-1.3,0.2-1.9c0-0.1,0-0.1,0.1-0.1
				c0.4,0,0.8,0,1.2,0c0,0.1,0,0.3-0.1,0.4C7,8.1,6.9,8.6,6.9,9.1c-0.1,0.9,0,1.8,0.2,2.7c0.1,0.6,0.3,1.1,0.7,1.6
				c0.3,0.3,0.6,0.5,1,0.5c0.3,0,0.6-0.1,0.8-0.2c0,0,0-0.1,0-0.1c-0.6-0.9-0.9-1.9-1.1-2.9c-0.1-0.7-0.1-1.4,0.2-2.1
				C8.8,8.2,9,7.9,9.4,7.6c0.8-0.7,2-0.5,2.6,0.4c0.3,0.4,0.4,0.9,0.5,1.4c0.2,1.2-0.1,2.4-0.6,3.5c-0.1,0.3-0.3,0.6-0.5,0.9
				c0.2,0.1,0.4,0.2,0.6,0.2c0.5,0.1,0.9-0.2,1.2-0.5c0.4-0.4,0.6-1,0.8-1.6c0.1-0.6,0.2-1.2,0.2-1.7c0-1,0-1.9-0.2-2.9c0,0,0,0,0,0
				c0.4,0,0.9,0,1.3,0c0,0.2,0.1,0.4,0.1,0.6c0.1,0.7,0.1,1.4,0.1,2.1c0,0.9-0.1,1.8-0.3,2.7c-0.2,0.7-0.5,1.3-1,1.9
				c-0.5,0.5-1.1,0.8-1.8,0.9c0,0-0.1,0-0.1,0c-0.1,0-0.1,0-0.2,0c0,0,0,0-0.1,0c-0.5,0-1-0.2-1.4-0.5c-0.1,0-0.1,0-0.1,0
				C10.1,15,9.7,15.2,9.3,15.2z"/>
			<path class="fill-white" d="M10.5,3.7c4,0,7.2,3.2,7.2,7.2S14.5,18,10.5,18s-7.2-3.2-7.2-7.2S6.6,3.7,10.5,3.7z M9.4,7.6
				C9,7.9,8.8,8.2,8.7,8.7c-0.2,0.7-0.3,1.4-0.2,2.1c0.2,1,0.5,2,1.1,2.9c0,0,0,0,0,0.1C9.4,13.9,9.1,14,8.8,14
				c-0.4,0-0.7-0.2-1-0.5c-0.4-0.4-0.6-1-0.7-1.6C6.9,11,6.8,10.1,6.9,9.1C6.9,8.6,7,8.1,7,7.6c0-0.1,0-0.2,0.1-0.4
				c-0.4,0-0.8,0-1.2,0c-0.1,0-0.1,0-0.1,0.1C5.7,7.9,5.6,8.5,5.6,9.2c0,1,0,2,0.2,2.9c0.1,0.7,0.4,1.4,0.8,2c0.5,0.6,1,1,1.8,1.2
				c0.1,0,0.2,0,0.4,0.1c0.1,0,0.1,0,0.2,0c0.1,0,0.2,0,0.4-0.1c0.4-0.1,0.8-0.2,1.1-0.5c0.1,0,0.1,0,0.1,0c0.4,0.3,0.9,0.5,1.4,0.5
				c0,0,0,0,0.1,0c0.1,0,0.1,0,0.2,0c0,0,0.1,0,0.1,0c0.7,0,1.3-0.4,1.8-0.9c0.5-0.5,0.8-1.2,1-1.9c0.2-0.9,0.3-1.8,0.3-2.7
				c0-0.7,0-1.4-0.1-2.1c0-0.2-0.1-0.4-0.1-0.6c-0.4,0-0.9,0-1.3,0c0,0,0,0,0,0c0.2,1,0.2,1.9,0.2,2.9c0,0.6-0.1,1.2-0.2,1.7
				c-0.1,0.6-0.3,1.2-0.8,1.6C12.9,13.8,12.5,14,12,14c-0.2,0-0.4-0.1-0.6-0.2c0.2-0.3,0.3-0.6,0.5-0.9c0.5-1.1,0.8-2.3,0.6-3.5
				c-0.1-0.5-0.2-1-0.5-1.4C11.4,7.1,10.2,6.9,9.4,7.6z"/>
		</g>
	</g>
</g>
</svg>
