<?xml version="1.0" encoding="utf-8"?>
<!-- Generator: Adobe Illustrator 26.0.3, SVG Export Plug-In . SVG Version: 6.00 Build 0)  -->
<svg version="1.1" id="레이어_1" xmlns="http://www.w3.org/2000/svg" xmlns:xlink="http://www.w3.org/1999/xlink" x="0px"
	 y="0px" viewBox="0 0 22 22" style="enable-background:new 0 0 22 22;" xml:space="preserve">
<style type="text/css">
	.st0{fill:#FFFFFF;}
	.st1{fill:#2F4780;}
</style>
<g id="XMLID_00000173879338688213461090000004341641696365735839_">
	<g>
		<path class="fill-white" d="M14.7,16.5c-0.2,0-0.4,0-0.6,0.1l-0.2,0c-2-0.1-3.4-1.1-4.5-1.9c-1.1-0.9-2.3-2-3.2-3.5
			C5.5,9.8,5.2,8.6,5.4,7.4c0.2-1.2,1-1.9,2.2-2c0.6,0,0.9,0.2,1.1,0.7C9,6.9,9.2,7.5,9.5,8.1c0.3,0.6,0.2,1.1-0.3,1.6
			c-0.2,0.2-0.4,0.4-0.4,0.5c0,0.1,0.2,0.3,0.4,0.5c0.6,0.8,1.4,1.6,2.4,2.3c0.3,0.2,0.4,0.2,0.6,0c0.6-0.7,1.2-0.8,2-0.4
			c0.5,0.3,1.2,0.5,1.7,0.7c0.6,0.2,0.9,0.6,0.8,1.2C16.6,15.7,16,16.3,14.7,16.5z"/>
		<path class="fill-blue" d="M11.1,0C17.2,0,22,4.9,22,11c0,6.1-4.9,11-11,10.9c-6.1,0-11-5.1-11-11.1C0.1,4.8,5,0,11.1,0z M16.7,14.5
			c0.1-0.6-0.2-1-0.8-1.2c-0.6-0.2-1.2-0.4-1.7-0.7c-0.8-0.4-1.5-0.3-2,0.4c-0.1,0.2-0.2,0.2-0.6,0c-1-0.7-1.8-1.4-2.4-2.3
			c-0.2-0.2-0.3-0.5-0.4-0.5c0-0.1,0.3-0.3,0.4-0.5c0.5-0.5,0.6-1,0.3-1.6C9.2,7.5,9,6.9,8.7,6.1C8.5,5.6,8.1,5.3,7.5,5.4
			c-1.1,0.1-2,0.8-2.2,2c-0.2,1.2,0.1,2.5,0.9,3.8c0.9,1.5,2.1,2.6,3.2,3.5c1,0.9,2.5,1.9,4.5,1.9l0.2,0c0.2,0,0.4,0,0.6-0.1
			C16,16.3,16.6,15.7,16.7,14.5z"/>
	</g>
</g>
</svg>
