<?xml version="1.0" encoding="utf-8"?>
<!-- Generator: Adobe Illustrator 26.0.3, SVG Export Plug-In . SVG Version: 6.00 Build 0)  -->
<svg version="1.1" id="레이어_1" xmlns="http://www.w3.org/2000/svg" xmlns:xlink="http://www.w3.org/1999/xlink" x="0px"
	 y="0px" viewBox="0 0 20 22" style="enable-background:new 0 0 20 22;" xml:space="preserve">
<style type="text/css">
	.st2{fill:transparent;}
	.st1{fill:#2F4780;}
</style>
<g>
	<g>
		<g id="XMLID_00000034788007753137094620000001015992185452195982_">
			<g>
				<path class="st2" d="M17.8,4.3v15.3c0,0.1-0.1,0.2-0.2,0.2H2.4c-0.1,0-0.2-0.1-0.2-0.2V4.3c0-0.1,0.1-0.2,0.2-0.2H4v0.7
					C4,5.5,4.5,6,5.1,6c0.6,0,1.2-0.5,1.2-1.2V4.1h2.6v0.7C8.9,5.5,9.4,6,10,6c0.6,0,1.1-0.5,1.1-1.2V4.1H14v0.7
					C14,5.5,14.5,6,15.1,6c0.6,0,1.2-0.5,1.2-1.2V4.1h1.3C17.7,4.1,17.8,4.2,17.8,4.3z"/>
				<g>
					<path class="st1" d="M17.6,1.9h-1.3V1.2c0-0.6-0.5-1.2-1.2-1.2c-0.6,0-1.1,0.5-1.1,1.2v0.7h-2.8V1.2c0-0.6-0.5-1.2-1.1-1.2
						c-0.6,0-1.2,0.5-1.2,1.2v0.7H6.3V1.2c0-0.6-0.5-1.2-1.2-1.2C4.5,0.1,4,0.6,4,1.2v0.7H2.4C1.1,1.9,0,3,0,4.3v15.3
						c0,1.3,1.1,2.4,2.4,2.4h15.3c1.3,0,2.4-1.1,2.4-2.4V4.3C20,3,18.9,1.9,17.6,1.9z M17.8,19.4c0,0.2-0.2,0.4-0.4,0.4H2.5
						c-0.2,0-0.4-0.2-0.4-0.4V4.4c0-0.2,0.2-0.4,0.4-0.4H4v0.7C4,5.5,4.5,6,5.1,6c0.6,0,1.2-0.5,1.2-1.2V4.1h2.6v0.7
						C8.9,5.5,9.4,6,10,6c0.6,0,1.1-0.5,1.1-1.2V4.1H14v0.7C14,5.5,14.5,6,15.1,6c0.6,0,1.2-0.5,1.2-1.2V4.1h1.2
						c0.2,0,0.4,0.2,0.4,0.4V19.4z"/>
					<path class="st1" d="M13.5,7.6l-0.8,1.1l-3.5,4.9l-2.4-3.2l-0.2-0.3C6.2,9.7,5.5,9.6,5,10c-0.5,0.4-0.6,1-0.2,1.5l3.5,4.7
						c0.2,0.3,0.5,0.4,0.9,0.4c0,0,0,0,0,0c0.3,0,0.7-0.2,0.9-0.5l5.2-7.3c0.3-0.5,0.2-1.2-0.3-1.5C14.5,7,13.8,7.1,13.5,7.6z"/>
				</g>
			</g>
		</g>
	</g>
</g>
</svg>
